/* XPM */
static char * about_xpm[] = {
"20 20 19 1",
" 	c None",
".	c #CECECE",
"+	c #B6B6B6",
"@	c #AAAAAA",
"#	c #868686",
"$	c #6E6E6E",
"%	c #4A4A4A",
"&	c #323232",
"*	c #000000",
"=	c #565656",
"-	c #626262",
";	c #C2C2C2",
">	c #929292",
",	c #F2F2F2",
"'	c #E6E6E6",
")	c #A0A0A4",
"!	c #1A1A1A",
"~	c #3E3E3E",
"{	c #7A7A7A",
".....++@#$$#@++.....",
"....+#%&*&&*&%#+....",
"...+=*-#@;;@#-*=+...",
"..+=*>..,,,,..>*=+..",
".+=*#.,,'&*),,.#*=+.",
"+#*>.,,,+**=,,,.>*#+",
"+%=.,,,,'%!+,,,,;-%+",
"@&#,,,,,,,,,,,,,.#&@",
"#*@,,,,,#~~>,,,,,@*#",
"$&;,,,,,.**{,,,,,;&$",
"$&;,,,,,.**{,,,,,;&$",
"#*@,,,,,.**{,,,,,@*#",
"@&#,,,,,.**{,,,,.#&@",
"+%-.,,,,.**{,,,,;-%+",
"+#*>.,,,.**{,,,.>*#+",
".+=*#.,+{!!~+,.#*=+.",
"..+=*>;,,,,,,;>*=+..",
"...+=*-#@;;@#-*=+...",
"....+#%&*&&*&%#+....",
".....++@#$$#@++....."};
