/* XPM */
static char * admin_xpm[] = {
"20 20 15 1",
" 	c None",
".	c #CECECE",
"+	c #626262",
"@	c #000000",
"#	c #F8E2B1",
"$	c #250073",
"%	c #4A0073",
"&	c #937A00",
"*	c #FFFFFF",
"=	c #8F6BFF",
"-	c #310096",
";	c #868686",
">	c #C5AA00",
",	c #AF9200",
"'	c #3E3E3E",
"...........++++++++.",
"..........+@@@@@@@@+",
"..+++++++++@######@+",
".+@@@@@@@@@@@@@@##@+",
".+@############@##@+",
".+@#$%%%%%%%%$#@##@+",
".+@#&%*=%%---&#@##@+",
".+@#&%=%%----&#@##@+",
".+@#&%%------&#@##@+",
".+@#&%---$$$@&#@##@+",
".+@#&%---$$@@&#@##@+",
".+@#$%---@@@@$#@##@+",
".+@############@##@+",
";+@&&&&&&&&&&&&@##@+",
"+@@@@@@@@@@@@@@@##@+",
"+@*>*>*>*>*>*>*>@#@+",
"+@,@>,@>,,@>,@>,@#@+",
"+@>*>*>*>*>*>*>*@@@+",
";'@@@@@@@@@@@@@@'++;",
".;++++++++++++++;..."};
