/* XPM */
static char * change_xpm[] = {
"20 20 32 1",
" 	c None",
".	c #CECECE",
"+	c #B6B6B6",
"@	c #AAAAAA",
"#	c #868686",
"$	c #6E6E6E",
"%	c #4A4A4A",
"&	c #323232",
"*	c #000000",
"=	c #565656",
"-	c #006296",
";	c #FFFFFF",
">	c #007AB9",
",	c #0092DC",
"'	c #48B8FF",
")	c #007373",
"!	c #00734A",
"~	c #00AAFF",
"{	c #8ED4FF",
"]	c #25AAFF",
"^	c #00B9B9",
"/	c #005050",
"(	c #DADADA",
"_	c #C5AA00",
":	c #626200",
"<	c #4A4A00",
"[	c #323200",
"}	c #3E3E3E",
"|	c #B1FFFF",
"1	c #48FFFF",
"2	c #004A73",
"3	c #003250",
".....++@#$$#@++.....",
"....+#%&*==*&%#+....",
"...+=*-.;;.;>-*=+...",
"..+=*,,';.;.'))*=+..",
".+=*!~{{']']^///*=+.",
"+#*!^;;'](((!_::<*#+",
"+%!^+;']';;((_::<[%+",
"@&:'{']']]]^!_::<[&@",
"#*:+++((((^!:_:<<[*#",
"$}<[+(;|||11_::<[>2$",
"$}<++((((],!:::<>>2$",
"#*#+((],],]/::<,>>*#",
"@&#+,],],],,/:<>>-&@",
"+%[,,,,,,,,,,/<>-3%+",
"+#*,>,#,>,>,#>/23*#+",
".+=*3#+#>>>+;#23*=+.",
"..+=*3&++;++#23*=+..",
"...+=*3&;;;+#3*=+...",
"....+#%&*&&*&%#+....",
".....++@#$$#@++....."};
