/* XPM */
static char * connect_xpm[] = {
"20 20 16 1",
" 	c None",
".	c #4A4A4A",
"+	c #000000",
"@	c #262626",
"#	c #9E9E9E",
"$	c #7A7A7A",
"%	c #6E6E6E",
"&	c #626262",
"*	c #3E3E3E",
"=	c #FFFFB1",
"-	c #FEFE00",
";	c #DCDC00",
">	c #B9B900",
",	c #B6B6B6",
"'	c #868686",
")	c #929292",
"                    ",
"                    ",
"                    ",
"                    ",
"                    ",
"        .+++++      ",
"      +@+#$%&++++++ ",
"      +*@....+=-;>+&",
" +++++@...#.#++++++ ",
"&+,#'$$.).).)++'''  ",
"&+......$.).)++'''  ",
" +++++@...$.$++++++ ",
"      +*@.&.&+=-;>+&",
"      +@+&...++++++ ",
"        .+++++      ",
"                    ",
"                    ",
"                    ",
"                    ",
"                    "};
