/* XPM */
static char * disconnect_xpm[] = {
"20 20 20 1",
" 	c None",
".	c #000000",
"+	c #730025",
"@	c #FF6B8F",
"#	c #B9003D",
"$	c #DC0049",
"%	c #626262",
"&	c #262626",
"*	c #9E9E9E",
"=	c #7A7A7A",
"-	c #6E6E6E",
";	c #960031",
">	c #4A4A4A",
",	c #FFFFB1",
"'	c #FEFE00",
")	c #DCDC00",
"!	c #B9B900",
"~	c #929292",
"{	c #868686",
"]	c #3E3E3E",
"                    ",
" ..     ..          ",
".+@.   .@+.         ",
".#$@. .@$#.         ",
" .#$@.@$#.%         ",
"  .#$@$#......      ",
"   .@$@&.*=-%...... ",
"  .@$;$@&>>>>.,')!.%",
" .@$;.;$@.*>*...... ",
".@$;.=.;$@>>~..{{{  ",
".+;.>>>.;+>>~..{{{  ",
" .....&>..%>=...... ",
"      .]&>%>%.,')!.%",
"      .&.%>>>...... ",
"        >.....      ",
"                    ",
"                    ",
"                    ",
"                    ",
"                    "};
