/* XPM */
static char * exit_xpm[] = {
"20 20 13 1",
" 	c None",
".	c #CECECE",
"+	c #B6B6B6",
"@	c #4A4A4A",
"#	c #626262",
"$	c #000000",
"%	c #FF6B8F",
"&	c #FFB1C7",
"*	c #DC0049",
"=	c #FFFFFF",
"-	c #FF0055",
";	c #960031",
">	c #B90000",
"....................",
"....................",
"....................",
".....+@#+...+@#+....",
"....+@$$#..+@$$#....",
"...+@$%$#.+@$%$#....",
"..+@$%&$##@$%&$####+",
".+@$%&*$$$$%&*$$$$$#",
"+@$%=**-;$%=**---*$#",
"@$%=***;$%=******;$#",
"#$;%***;$;%******;$#",
"+#$;>*>;;$;>**;;;;$#",
".+#$;>>$$$$;>>$$$$$#",
"..+#$;>$###$;>$####+",
"...+#$;$#.+#$;$#....",
"....+#$$#..+#$$#....",
".....+##+...+##+....",
"....................",
"....................",
"...................."};
