/* XPM */
static char * flush_xpm[] = {
"20 20 12 1",
" 	c None",
".	c #CECECE",
"+	c #B6B6B6",
"@	c #626262",
"#	c #000000",
"$	c #FFFFFF",
"%	c #8ED4FF",
"&	c #25AAFF",
"*	c #48B8FF",
"=	c #0092DC",
"-	c #6BC6FF",
";	c #007AB9",
"......+@@@@@@+......",
".....+@######@+.....",
".....+@#$%%&#@+.....",
".....+@#$**=#@+.....",
".....+@#%**=#@+.....",
".....+@#%**=#@+.....",
".....+@#%**=#@+.....",
".....+@#%**=#@+.....",
".....+@#%**=#@+.....",
".....+@#%**=#@+.....",
"....++@#%**=#@++....",
"...+@@@#%**=#@@@+...",
"..+@####%**=####@+..",
"..+@#%-****&&&;#@+..",
"...+@#%-****&;#@+...",
"....+@#%-**&;#@+....",
".....+@#%-&;#@+.....",
"......+@#%;#@+......",
".......+@##@+.......",
"........+@@+........"};
