/* XPM */
static char * handyftp_xpm[] = {
"48 48 751 2",
"  	c None",
". 	c #010101",
"+ 	c #000000",
"@ 	c #080808",
"# 	c #313131",
"$ 	c #0C0C0C",
"% 	c #070707",
"& 	c #030303",
"* 	c #060606",
"= 	c #0A0A0E",
"- 	c #485CD5",
"; 	c #488E9A",
"> 	c #387B70",
", 	c #2B6B6E",
"' 	c #2F85B5",
") 	c #4D86FE",
"! 	c #4DA3FE",
"~ 	c #538FFE",
"{ 	c #548BFE",
"] 	c #528AE5",
"^ 	c #4D85A8",
"/ 	c #4D7F9D",
"( 	c #4679D4",
"_ 	c #4748D5",
": 	c #221D64",
"< 	c #0D0D0D",
"[ 	c #262626",
"} 	c #161616",
"| 	c #050505",
"1 	c #040404",
"2 	c #202020",
"3 	c #0E0E0E",
"4 	c #11152C",
"5 	c #31408B",
"6 	c #31528E",
"7 	c #3E6DD1",
"8 	c #51A9D6",
"9 	c #4AA3C2",
"0 	c #3A93AD",
"a 	c #2D91AF",
"b 	c #3F92D3",
"c 	c #54A2FE",
"d 	c #5494FE",
"e 	c #549CFE",
"f 	c #4E9FE5",
"g 	c #4191A9",
"h 	c #5491AB",
"i 	c #3E91D1",
"j 	c #3E75D1",
"k 	c #295392",
"l 	c #18355B",
"m 	c #172451",
"n 	c #020202",
"o 	c #191919",
"p 	c #101010",
"q 	c #0A0A0A",
"r 	c #151515",
"s 	c #0B0B0B",
"t 	c #15122A",
"u 	c #1C2443",
"v 	c #2F4685",
"w 	c #557BFF",
"x 	c #5491FD",
"y 	c #3778C3",
"z 	c #50A2F5",
"A 	c #4EABF1",
"B 	c #47AADB",
"C 	c #42A6C3",
"D 	c #389CC5",
"E 	c #5493FE",
"F 	c #54A5FE",
"G 	c #4CABE5",
"H 	c #3B91AD",
"I 	c #5491C3",
"J 	c #3791C3",
"K 	c #3791AE",
"L 	c #3784A9",
"M 	c #336DA9",
"N 	c #284C9D",
"O 	c #181F4A",
"P 	c #090909",
"Q 	c #0F0F0F",
"R 	c #121212",
"S 	c #0B0E22",
"T 	c #48479C",
"U 	c #5574DC",
"V 	c #5592FF",
"W 	c #5592FD",
"X 	c #5592F3",
"Y 	c #5996FD",
"Z 	c #4799D7",
"` 	c #4CADCB",
" .	c #7BD1FE",
"..	c #5AB5FE",
"+.	c #54B1F3",
"@.	c #5997FD",
"#.	c #5AA5FE",
"$.	c #59ABE8",
"%.	c #5491BF",
"&.	c #5491FE",
"*.	c #5491F3",
"=.	c #5091B6",
"-.	c #5291A9",
";.	c #4886A9",
">.	c #2F6CB3",
",.	c #4D6AEC",
"'.	c #12151D",
").	c #0A0B0C",
"!.	c #141414",
"~.	c #000001",
"{.	c #050710",
"].	c #556EFF",
"^.	c #558CFF",
"/.	c #5592FC",
"(.	c #5593F1",
"_.	c #5694AC",
":.	c #77B0EE",
"<.	c #7EC8FC",
"[.	c #7ECEFD",
"}.	c #7FB5FE",
"|.	c #7EB4FC",
"1.	c #5693AC",
"2.	c #7993F1",
"3.	c #7FA5FE",
"4.	c #73ABFE",
"5.	c #5693FE",
"6.	c #5391F9",
"7.	c #5491A9",
"8.	c #3291A9",
"9.	c #4887A9",
"0.	c #2A6EA9",
"a.	c #2C6CA9",
"b.	c #536CA9",
"c.	c #1B212D",
"d.	c #08090A",
"e.	c #010002",
"f.	c #121528",
"g.	c #546EFE",
"h.	c #5592D1",
"i.	c #559CAA",
"j.	c #5ABAB5",
"k.	c #80DBFF",
"l.	c #5CBCB8",
"m.	c #55A2AA",
"n.	c #619CC3",
"o.	c #74B1F3",
"p.	c #2C91A9",
"q.	c #4891A9",
"r.	c #2A8DA9",
"s.	c #2A6CA9",
"t.	c #2A467C",
"u.	c #201B3D",
"v.	c #1B1B1B",
"w.	c #161C41",
"x.	c #4962DB",
"y.	c #548CFE",
"z.	c #55AAFF",
"A.	c #55AFF7",
"B.	c #5FB1F0",
"C.	c #79B6F2",
"D.	c #80BDFF",
"E.	c #68C3CF",
"F.	c #7AC7F5",
"G.	c #75ADE9",
"H.	c #5A9BB6",
"I.	c #4EAFA9",
"J.	c #54AFA9",
"K.	c #4FAFE5",
"L.	c #519FCB",
"M.	c #4888A9",
"N.	c #2A72A0",
"O.	c #2A6C65",
"P.	c #3D66A2",
"Q.	c #36446D",
"R.	c #1F1F1F",
"S.	c #191632",
"T.	c #39418B",
"U.	c #5483FE",
"V.	c #5492FE",
"W.	c #55A5FF",
"X.	c #55B3FF",
"Y.	c #61B6FF",
"Z.	c #71B6FF",
"`.	c #7CB6F8",
" +	c #68B5D1",
".+	c #52B4D1",
"++	c #67C6D6",
"@+	c #82C8EC",
"#+	c #96C2FF",
"$+	c #96B5FE",
"%+	c #83B5FE",
"&+	c #73B5E6",
"*+	c #69B0D3",
"=+	c #6BA7D7",
"-+	c #6BB5D5",
";+	c #54B5A9",
">+	c #54A5CB",
",+	c #5499BC",
"'+	c #48869C",
")+	c #2A6F77",
"!+	c #2A8056",
"~+	c #2A6C7C",
"{+	c #3D6CA2",
"]+	c #4B6CA9",
"^+	c #425784",
"/+	c #132127",
"(+	c #1C1C1C",
"_+	c #2D2C5A",
":+	c #5166BB",
"<+	c #4A91E8",
"[+	c #55B6FF",
"}+	c #6BB6FF",
"|+	c #7CB2F7",
"1+	c #6FABDD",
"2+	c #54ABAA",
"3+	c #37A7AA",
"4+	c #7ED2F0",
"5+	c #9CC7FF",
"6+	c #AAB6FF",
"7+	c #A9B5FE",
"8+	c #87B5FE",
"9+	c #69B0D1",
"0+	c #61AEC3",
"a+	c #7EB4FB",
"b+	c #72ABE3",
"c+	c #54ABA9",
"d+	c #5496A9",
"e+	c #488690",
"f+	c #2A7154",
"g+	c #2A9155",
"h+	c #2A786E",
"i+	c #436EA0",
"j+	c #486CA9",
"k+	c #3F6290",
"l+	c #25404D",
"m+	c #000A18",
"n+	c #171717",
"o+	c #131313",
"p+	c #0C0F1F",
"q+	c #32436A",
"r+	c #4A7BA9",
"s+	c #3592B5",
"t+	c #5497FE",
"u+	c #55B1F3",
"v+	c #55B5F3",
"w+	c #68B3F3",
"x+	c #6FA9DD",
"y+	c #5597AB",
"z+	c #5A9DB4",
"A+	c #5ADBAA",
"B+	c #9CDBF0",
"C+	c #AAC7FF",
"D+	c #A8B6FF",
"E+	c #A5B5FE",
"F+	c #A4B5FE",
"G+	c #86B1F5",
"H+	c #6CA3D2",
"I+	c #649EC8",
"J+	c #528FA3",
"K+	c #46868B",
"L+	c #307A60",
"M+	c #309162",
"N+	c #2A8D9E",
"O+	c #2A729E",
"P+	c #2A6A9E",
"Q+	c #2A5E88",
"R+	c #264555",
"S+	c #052C52",
"T+	c #0C0B12",
"U+	c #030203",
"V+	c #010205",
"W+	c #455BD3",
"X+	c #5480D0",
"Y+	c #5496B5",
"Z+	c #54B4FC",
"`+	c #5592AA",
" @	c #55AEAA",
".@	c #55A3AA",
"+@	c #559EAA",
"@@	c #5BBBB7",
"#@	c #80D9FC",
"$@	c #80D9AA",
"%@	c #A1D9F0",
"&@	c #A7C6FD",
"*@	c #9BB6FC",
"=@	c #85B5FC",
"-@	c #A7B5FC",
";@	c #7FB4FC",
">@	c #7E97B7",
",@	c #7EA4D5",
"'@	c #72AAE3",
")@	c #5390A9",
"!@	c #3E7E7E",
"~@	c #388370",
"{@	c #528FA7",
"]@	c #2A6C54",
"^@	c #2A5A54",
"/@	c #2A4A54",
"(@	c #2B4E55",
"_@	c #2B6A55",
":@	c #2B2555",
"<@	c #0D0C14",
"[@	c #2B49AA",
"}@	c #2A66A9",
"|@	c #4180A9",
"1@	c #55B8AA",
"2@	c #61DBC3",
"3@	c #80D6FF",
"4@	c #80B6FC",
"5@	c #80B6AA",
"6@	c #80B6F0",
"7@	c #69B6D1",
"8@	c #61B6AA",
"9@	c #7FB5A9",
"0@	c #7FB4A9",
"a@	c #7F91A9",
"b@	c #5C91A9",
"c@	c #3273A9",
"d@	c #4F8DA9",
"e@	c #2A6CA7",
"f@	c #2B6D55",
"g@	c #2B6B55",
"h@	c #2B4955",
"i@	c #070C0E",
"j@	c #222222",
"k@	c #07090C",
"l@	c #2B66AA",
"m@	c #2A6BA9",
"n@	c #5492AB",
"o@	c #5498B7",
"p@	c #55AFAA",
"q@	c #55B6AA",
"r@	c #61BCC3",
"s@	c #80BBF5",
"t@	c #80B6B7",
"u@	c #629DB5",
"v@	c #45878A",
"w@	c #3E8278",
"x@	c #5793A0",
"y@	c #397863",
"z@	c #397363",
"A@	c #508C9E",
"B@	c #4A8894",
"C@	c #327363",
"D@	c #337465",
"E@	c #4A88A9",
"F@	c #3176A9",
"G@	c #2A8AA7",
"H@	c #252584",
"I@	c #110E42",
"J@	c #06080F",
"K@	c #1B2C5F",
"L@	c #2B597C",
"M@	c #3D7AA2",
"N@	c #4B7FA9",
"O@	c #4E7EA9",
"P@	c #3E7BA3",
"Q@	c #3F6D7E",
"R@	c #68C6CF",
"S@	c #5FBFBF",
"T@	c #61B6B5",
"U@	c #80B6CC",
"V@	c #7FB5AA",
"W@	c #69A2AA",
"X@	c #5894AA",
"Y@	c #3E7E7C",
"Z@	c #307860",
"`@	c #3B8D77",
" #	c #2B6D56",
".#	c #418082",
"+#	c #518FA3",
"@#	c #488C90",
"##	c #2A8054",
"$#	c #2B8056",
"%#	c #2E5F7C",
"&#	c #35637C",
"*#	c #38657C",
"=#	c #2A5E82",
"-#	c #2A7DA7",
";#	c #2A6C6D",
">#	c #2A6C74",
",#	c #2B3A76",
"'#	c #141A3A",
")#	c #050B16",
"!#	c #2A53A7",
"~#	c #1E4955",
"{#	c #417C9B",
"]#	c #4879A9",
"^#	c #436CA9",
"/#	c #376BA2",
"(#	c #386170",
"_#	c #78CBF0",
":#	c #6FC2D1",
"<#	c #67B2AA",
"[#	c #74ACAA",
"}#	c #7EB5AA",
"|#	c #619CAA",
"1#	c #4B898A",
"2#	c #337C66",
"3#	c #2C8458",
"4#	c #387970",
"5#	c #549CA9",
"6#	c #4E979C",
"7#	c #3F917E",
"8#	c #2A9154",
"9#	c #2A9054",
"0#	c #2A5854",
"a#	c #2A4E54",
"b#	c #2A4C54",
"c#	c #2A575C",
"d#	c #2A6C8E",
"e#	c #2A6774",
"f#	c #2A657E",
"g#	c #2B6C55",
"h#	c #2B5355",
"i#	c #2B4A55",
"j#	c #142735",
"k#	c #000711",
"l#	c #020204",
"m#	c #0A1220",
"n#	c #296BA7",
"o#	c #004D55",
"p#	c #23679B",
"q#	c #376CA9",
"r#	c #5470A8",
"s#	c #4F899F",
"t#	c #55B1AA",
"u#	c #74B1E7",
"v#	c #7AB1CC",
"w#	c #70AAAD",
"x#	c #5F9FB3",
"y#	c #7AB1AA",
"z#	c #63A0A3",
"A#	c #46898B",
"B#	c #367B6B",
"C#	c #5A97B4",
"D#	c #5AB5A9",
"E#	c #55B1A9",
"F#	c #41A082",
"G#	c #2E915C",
"H#	c #2A5C54",
"I#	c #2A5554",
"J#	c #2A6854",
"K#	c #2A5754",
"L#	c #2A5354",
"M#	c #2B6855",
"N#	c #173755",
"O#	c #041D3C",
"P#	c #12101F",
"Q#	c #2A2F62",
"R#	c #296DA4",
"S#	c #016D57",
"T#	c #246C9C",
"U#	c #4E689F",
"V#	c #2D4C5A",
"W#	c #5590AA",
"X#	c #5591AA",
"Y#	c #61A7C2",
"Z#	c #7ED3F1",
"`#	c #7DB3AA",
" $	c #5593AA",
".$	c #409381",
"+$	c #399D72",
"@$	c #5AB4B4",
"#$	c #7EB4F9",
"$$	c #7EB4A9",
"%$	c #5B96A9",
"&$	c #5490A9",
"*$	c #489090",
"=$	c #2A8F54",
"-$	c #2A6254",
";$	c #2A4854",
">$	c #2A4954",
",$	c #22373F",
"'$	c #0C2033",
")$	c #2A6C9E",
"!$	c #2B6D57",
"~$	c #2B6DAA",
"{$	c #306CA9",
"]$	c #546CA9",
"^$	c #556DAA",
"/$	c #558BAA",
"($	c #78D4F0",
"_$	c #80C7FF",
":$	c #73ABE5",
"<$	c #5473A9",
"[$	c #486C90",
"}$	c #2A4F54",
"|$	c #2B4F55",
"1$	c #20353D",
"2$	c #172033",
"3$	c #496C9E",
"4$	c #3D6CA9",
"5$	c #3071A9",
"6$	c #548BA9",
"7$	c #5AA2B5",
"8$	c #5C9AB8",
"9$	c #5A96B3",
"0$	c #546EA9",
"a$	c #5276A5",
"b$	c #498792",
"c$	c #2B5055",
"d$	c #1E3C51",
"e$	c #021C3F",
"f$	c #0D0B19",
"g$	c #222845",
"h$	c #3B5C77",
"i$	c #356CA9",
"j$	c #38679C",
"k$	c #305E82",
"l$	c #547EA9",
"m$	c #557EAA",
"n$	c #496C86",
"o$	c #3F606E",
"p$	c #417082",
"q$	c #5491A8",
"r$	c #3E7B7C",
"s$	c #517DA2",
"t$	c #5480A9",
"u$	c #496291",
"v$	c #3E5E7C",
"w$	c #3B6877",
"x$	c #2A5954",
"y$	c #2A6954",
"z$	c #2A5454",
"A$	c #2A4B54",
"B$	c #2A4651",
"C$	c #28383D",
"D$	c #2B5955",
"E$	c #174B2F",
"F$	c #1F3F32",
"G$	c #22313C",
"H$	c #122134",
"I$	c #181A3C",
"J$	c #2B3A66",
"K$	c #295554",
"L$	c #1E6257",
"M$	c #2A64A9",
"N$	c #2A67A9",
"O$	c #2A6598",
"P$	c #2E5776",
"Q$	c #486290",
"R$	c #394A62",
"S$	c #2C3F41",
"T$	c #2E5A5C",
"U$	c #47848E",
"V$	c #435D86",
"W$	c #486590",
"X$	c #487090",
"Y$	c #488590",
"Z$	c #385470",
"`$	c #2A5F54",
" %	c #2A444F",
".%	c #29292A",
"+%	c #293E47",
"@%	c #114721",
"#%	c #1B3721",
"$%	c #282828",
"%%	c #212121",
"&%	c #1A2A57",
"*%	c #2B5388",
"=%	c #266856",
"-%	c #064E62",
";%	c #2B68AA",
">%	c #2A4EA9",
",%	c #2A5CA9",
"'%	c #2A6CA8",
")%	c #2A669C",
"!%	c #2B4455",
"~%	c #2B4855",
"{%	c #2B4B55",
"]%	c #2B5755",
"^%	c #307060",
"/%	c #305260",
"(%	c #2B4A56",
"_%	c #2B5555",
":%	c #2A6B54",
"<%	c #2A4D54",
"[%	c #2A5154",
"}%	c #2B4550",
"|%	c #2B4752",
"1%	c #2B454F",
"2%	c #2D2D2D",
"3%	c #252525",
"4%	c #293F48",
"5%	c #2B373C",
"6%	c #2B2B2B",
"7%	c #16262D",
"8%	c #2A5355",
"9%	c #2A6C62",
"0%	c #2B6AA7",
"a%	c #2A48A9",
"b%	c #2A5BA9",
"c%	c #2A679C",
"d%	c #2A4755",
"e%	c #2B2657",
"f%	c #2B4355",
"g%	c #2B5C55",
"h%	c #307160",
"i%	c #5491AA",
"j%	c #5390AA",
"k%	c #315565",
"l%	c #2B5C56",
"m%	c #2B6255",
"n%	c #2A5A56",
"o%	c #2A5456",
"p%	c #2D3234",
"q%	c #2C3B42",
"r%	c #2B4853",
"s%	c #2B444E",
"t%	c #272727",
"u%	c #232323",
"v%	c #2B536E",
"w%	c #2A689E",
"x%	c #2B4957",
"y%	c #2A4890",
"z%	c #2A4A57",
"A%	c #2B4F63",
"B%	c #2B6D7C",
"C%	c #2A6C82",
"D%	c #2A6C90",
"E%	c #242424",
"F%	c #1D1D1D",
"G%	c #1F2F36",
"H%	c #2B4A59",
"I%	c #2A4E61",
"J%	c #2A4884",
"K%	c #2A485E",
"L%	c #2A4955",
"M%	c #2B4A57",
"N%	c #2B6455",
"O%	c #2B4F56",
"P%	c #315463",
"Q%	c #2B4F5B",
"R%	c #2B4D55",
"S%	c #2D3834",
"T%	c #2B4B4F",
"U%	c #2A4F5C",
"V%	c #2A4F5E",
"W%	c #2D2E2F",
"X%	c #2A2A2A",
"Y%	c #2C2C2C",
"Z%	c #181818",
"`%	c #221F5B",
" &	c #26345C",
".&	c #2B4856",
"+&	c #2B357C",
"@&	c #2A457C",
"#&	c #2A4867",
"$&	c #2B5155",
"%&	c #2B5455",
"&&	c #2B4854",
"*&	c #2C3A40",
"=&	c #2B4651",
"-&	c #2C3C42",
";&	c #2B4149",
">&	c #2C3A3F",
",&	c #292929",
"'&	c #1E1E1E",
")&	c #2B2E80",
"!&	c #2B3C70",
"~&	c #2B4555",
"{&	c #2A3F54",
"]&	c #2B2F55",
"^&	c #2A4454",
"/&	c #2A4754",
"(&	c #2A3D54",
"_&	c #2B3D55",
":&	c #2B4755",
"<&	c #2D3639",
"[&	c #2A434D",
"}&	c #293E46",
"|&	c #273C45",
"1&	c #293F47",
"2&	c #2B424B",
"3&	c #2B3539",
"4&	c #253E48",
"5&	c #2B3F55",
"6&	c #2A2D54",
"7&	c #2A4654",
"8&	c #2A2454",
"9&	c #2B2855",
"0&	c #2B5B55",
"a&	c #2B5E55",
"b&	c #29393F",
"c&	c #252829",
"d&	c #262627",
"e&	c #2A444E",
"f&	c #2C3032",
"g&	c #27404A",
"h&	c #2B4954",
"i&	c #2A2A54",
"j&	c #2A3754",
"k&	c #2A4254",
"l&	c #2A2554",
"m&	c #2A4753",
"n&	c #2B6553",
"o&	c #2B5854",
"p&	c #1A1A1A",
"q&	c #233C46",
"r&	c #2A2354",
"s&	c #2A2453",
"t&	c #323232",
"u&	c #323B3F",
"v&	c #2B3855",
"w&	c #2B2C4B",
"x&	c #2D3538",
"y&	c #2A4354",
"z&	c #2A3554",
"A&	c #2B2A4B",
"B&	c #282B38",
"C&	c #082453",
"D&	c #2E2E2E",
"E&	c #2E373A",
"F&	c #2D3335",
"G&	c #272B2D",
"H&	c #272A2B",
"I&	c #243D47",
"J&	c #2B3555",
"K&	c #292446",
"L&	c #262A2C",
"M&	c #293647",
"N&	c #292637",
"O&	c #26292C",
"P&	c #112137",
"Q&	c #2B3337",
"R&	c #2B3A40",
"S&	c #29353A",
"T&	c #2C3B40",
"U&	c #2C393F",
"V&	c #243447",
"W&	c #2A304D",
"X&	c #27233B",
"Y&	c #222628",
"Z&	c #2A4049",
"`&	c #283236",
" *	c #283338",
".*	c #2A393F",
"+*	c #2B3032",
"@*	c #2C383D",
"#*	c #2A3C43",
"$*	c #231E41",
"%*	c #282539",
"&*	c #272B2C",
"**	c #282B32",
"=*	c #27272A",
"-*	c #253238",
";*	c #293B43",
">*	c #2B254C",
",*	c #2C293F",
"'*	c #111111",
". + . @ # + + . . + + @ $ % & * = - ; > , ' ) ! ~ { ] ^ / ( _ : & % . + * * @ < . * [ } & | . . ",
". + + 1 2 1 3 % . & + & * | 4 5 6 7 8 9 0 a b c d e f g h i j k l m + 1 & . n % 1 @ o p | @ @ @ ",
"+ + + . @ q r < * s n + t u v w x y z A B C D e E F G H I J K L M N O % & n 1 % | | P $ $ * $ $ ",
". . . . % $ % q Q R % S T U V W X X Y Z `  ...+.@.#.$.%.&.*.=.-.;.>.,.'.).% * * + . s !.R + * * ",
"@ @ % * + + + + + ~.{.].^.W /.(._._.:.<.[.}.|.1.2.3.4.5.6.7.8.g 9.0.a.b.c.d.e.+ + % . + + + + + ",
"@ @ | . @ @ % % % f.g.V V h.i.j.k.k.l.m.n.}.}.}.}.}.}.o.p.7.8.g q.r.s.s.s.t.u.@ % + * & + n Q Q ",
". . n | n v.s 1 w.x.y.V z.A.B.C.D.k.l.E.F.}.}.}.}.}.G.H.I.J.K.L.M.N.O.s.s.P.Q.. . + . 1 * * P P ",
"& . n @ @ R.@ S.T.U.V.W.X.Y.Z.`. +.+++@+#+$+$+$+%+&+*+=+-+;+>+,+'+)+!+~+{+]+^+/++ + & & | % & & ",
"$ * 1 3 s (+1 _+:+<+E [+[+}+|+1+2+3+4+5+6+7+7+7+8+9+0+a+b+c+d+7.e+f+g+h+i+j+k+l+m+n | n . | n n ",
"} $ @ n++ o+p+q+r+s+t+u+v+w+x+y+z+A+B+C+D+E+7+F+G+H+I+G.7.7.7.J+K+L+M+N+O+P+Q+R+S+T+U++ + + * * ",
"+ + + + + V+W+X+7.Y+Z+`+ @.@+@@@#@$@%@&@*@=@-@;@>@,@'@7.7.7.)@!@~@J.{@]@]@^@/@(@_@:@<@& + + + + ",
"+ 1 | + V+[@}@|@7.Y+Z+`+`+1@2@3@4@5@6@7@8@9@0@a@b@7.7.7.7.7.c@|@7.d@e@]@]@]@]@f@g@h@i@1 | . @ @ ",
"* v.j@* k@l@m@|@7.n@o@p@p@q@r@s@t@5@u@v@w@x@y@z@A@7.B@C@D@7.c@|@E@F@G@]@]@]@]@f@g@h@H@I@1 s . . ",
"q o v.J@K@L@M@N@O@P@Q@q@R@S@T@U@V@W@X@Y@Z@`@ #.#+#7.@###$#Y@%#&#*#=#-#]@]@;#>#f@g@h@,#'#n * + + ",
"P < s )#!#~#{#]#^#/#(#q@_#:#<#[#}#|#|#1#2#3#4#5#5#6#7#8#9#]@0#a#b#c#d#]@]@e#f#f@g#h#i#j#k#+ 1 1 ",
". + l#m#n#o#p#s.q#r#s#t#u#v#w#x#V@y#y#z#A#B#C#D#E#F#G#8#9#]@]@H#I#J#J#J#J#K#L#f@g#M#(@N#O#& 3 3 ",
". 1 P#Q#R#S#T#s.q#U#V#W#X#`+Y#Z#`# $_..$+$@$#$$$%$&$*$9#=$]@]@]@-$;$>$/@>$;$L#f@g@i#h@h@,$< @ @ ",
"@ & '$)$!$~$s.s.s.{$]$^$/$`+`+`+ $q@($_$:$7.7.7.<$]$[$]@]@]@]@]@-$;$/@]@}$;$L#f@f@f@|$h@1$@ @ @ ",
"@ & 2$3$!$~$s.4$^#5$6$/$W#`+`+`+ $q@7$8$9$7.&$<$0$]$a$b$]@]@]@]@-$;$/@]@}$;$/@|$c$f@|$h@d$e$@ @ ",
"1 f$g$h$!$~$s.i$j$k$l$m$m$n$o$p$q$r$s$m$m$t$&$]$]$u$v$w$x$x$y$-$z$;$>$x$A$;$;$B$C$D$E$F$G$H$& & ",
"1 I$J$K$L$~$M$N$O$P$j+Q$Q$R$S$T$U$h@V$Q$W$X$Y$Q$Q$Z$;$/@L#L#`$z$;$;$;$;$;$;$;$ %.%+%@%#%$%%%+ + ",
"P &%*%=%-%;%>%,%s.'%)%!%~%{%]% #^%/%(%{%_%J#:%<%<%A$/@[%]@]@L#A$;$;$;$;$}%|%;$1%2%3%4%5%6%j@n n ",
". 7%8%9%0%[@a%b%m@c%d%e%f%g%f@h%i%j%k%l%m%<%:%]@]@n%o%]@:%]@]@x$;$;$;$;$p%q%r%s%2%R.3%t%[ u%Q Q ",
"+ 7%v%w%x%[@a%a%y%;$z%~$A%g%f@h%j%~$~$B%m%;$/@]@]@C%D%J#/@]@]@x$;$;$;$;$p%2%2%2%t%t%t%t%E%F%n+n+",
"R G%H%I%x%[@a%J%K%;$L%A%M%g%N%O%P%A%A%Q%R%;$r%S%T%U%V%a#>$}$}$A$;$;$r%p%W%X%[ u%Y%2 3%u%F%Z%n+n+",
"`% &h@;$.&+&@&#&;$;$;$h@h@$&%&h@&&*&=&h@h@;$&&-&=&;$;$;$;$;$;$;&*&*&>&2%2%X%E%2 ,&R.j@'&o } R R ",
")&!&~&{&~%]&^&;$;$/&(&_&:&h@h@h@&&<&}%(@c$;$;$;$;$[&}&|&1&;$2&3&6%6%,&6%6%$%j@R.j@(+(+o n+r Q Q ",
"4&h@5&6&h@h@^&7&;$^&8&9&f%h@h@h@R%h@R%0&a&;$;$;$;$b&c&2 d&e&f&,&[ 3%R.3%3%%%'&F%n+n+n+} r r Q Q ",
"g&h@h&;$h@h@i&j&;$k&l&m&r%r%&&R%_@h@n&o&h@;$&&r%&&&&}&[ R.[ [ [ E%'&'&'&'&p&o F%} n+n+R Q 3 3 3 ",
"q&h@h@;$h@h@i&j&(&r&s&t%Y%t&u&h@h@h@p%-&h@;$r%2%s%*&2%2%[ '&'&'&'&F%n+'&Z%v.'&(+Q n+n+R Q 3 @ @ ",
"q&v&w&x&h@h@y&z&A&B&C&t%Y%D&E&}%F&h@1%=&2&x&m&$%G&H&$%$%[ '&'&v.Z%Z%n+Z%(+p&Z%n+r p p $ q 3 @ @ ",
"I&J&K&L&h@h@;$M&N&O&P&j@,&Q&R&S&X%*&*&*&T&-&U&[ X%$%3%u%[ u%u%(+} } } } p&Z%} } R s s s $ 3 @ @ ",
"V&W&X&Y&h@h@Z&`&[ u%'&R.u% *.*t%t%6%,&+*@*#*2%[ 6%,&E%R.E%E%j@(+} !.!.!.!.!.!.o+3 @ @ s Q 3 q q ",
"$*%*[ &*1%1%**=*3%'&'&R.R.3%X%t%t%t%2 -*;*$%6%3%3%3%u%F%F%F%Z%} o+3 3 3 3 3 3 3 < @ @ s Q 3 3 3 ",
"2 [ [ t%2%2%>*,*,&'&'&'&'&R.%%[ [ [ 2 u%$%6%'&'&'&'&(+} } } } R 3 3 3 3 3 3 3 < @ @ @ s Q 3 @ @ ",
"2 [ [ [ t%t%2 u%E%F%} n+F%R.R.2 [ n+F%R.R.'&'&} } } } r 3 3 3 3 $ % @ 3 3 3 $ @ @ @ @ s Q Q Q Q ",
"2 X%6%[ 2 t%2 R.R.'&F%F%'&v.Z%Z%o F%'&v.} R Z%} } } r p 3 3 3 s @ % @ P P $ $ @ @ < < 3 Q Q Q Q ",
"F%[ ,&3%R.j@(+p&p&p&p&p&p&Z%n+n+n+R.v.Z%r o+} } o+R '*3 3 3 3 < s s % % s s s s s Q Q Q Q Q Q Q ",
"Z%2 E%u%(+R.Z%} } } } n+n+n+} !.!.(+n+r r } !.!.Q 3 3 3 3 3 3 < < 3 @ q 3 $ s Q Q Q Q Q Q Q Q Q ",
"o+v.'&F%n+F%Z%} } } } n+n+} o+Q Q r r R p !.3 3 3 3 3 3 3 3 3 s q 3 @ 3 3 3 3 Q Q Q Q Q Q 3 3 3 ",
"R p&(+} } n+} } } } } } } R 3 3 3 Q 3 3 < @ @ % % s Q 3 3 3 3 3 3 < @ 3 3 3 3 3 Q Q 3 3 3 < @ @ ",
"* s Q 3 Q n+p o+!.3 3 Q Q s q 3 @ Q P s '*r 3 % % p R % @ 3 P % % % % % % % % @ Q Q P @ @ @ @ @ ",
"s R o+Q r n+r R Q 3 Q r p 3 $ P 3 (+p s < r P v.s p R % @ P @ % % @ < < @ % % @ P P @ @ @ @ @ @ ",
"p r r o+R R } R 3 3 Q R Q Q 3 $ Q } p Q p '*$ } < < 3 s @ s @ % % @ s s @ P s s @ @ @ @ @ @ @ @ ",
"o+n+n+r Q '*} !.p 3 Q '*Q p '*'*Q o+'*!.!.Q '*$ 3 $ q $ q $ q q P % % % % q $ $ @ @ @ P P @ @ @ ",
"o+} } } '*n+} } o+3 Q r '*o+} } p (+Z%} o+p n+@ 3 Q $ @ 3 @ 3 p < @ P % % % @ @ @ @ @ s $ @ @ @ ",
"o+} } Z%'&n+} R 3 3 3 Q r R '*n+} Q (+} Q '*'&3 r R $ @ 3 3 r } R q } % % % q 3 @ Q P @ @ @ @ @ ",
"o+} } Z%'&n+} R 3 3 3 Q r R '*n+} Q (+} Q '*'&3 r R $ @ 3 3 r } R q } % % % q 3 @ Q P @ @ @ @ @ "};
