/* XPM */
static char * help_xpm[] = {
"20 20 21 1",
" 	c None",
".	c #CECECE",
"+	c #B6B6B6",
"@	c #626262",
"#	c #000000",
"$	c #505000",
"%	c #FFAA25",
"&	c #FFC66B",
"*	c #FFE2B1",
"=	c #FFFFFF",
"-	c #FFFF6B",
";	c #B9B900",
">	c #969600",
",	c #3E3E3E",
"'	c #808000",
")	c #FEFE00",
"!	c #1A1A1A",
"~	c #DCDC00",
"{	c #323232",
"]	c #262626",
"^	c #6E6E6E",
".+@@@@@@@@@@@@@@@@+.",
"+@################@+",
"@#$%&&&&&&&&&&&&%$#@",
"@#%&*************%#@",
"@#&*==-;>@,';---*&#@",
"@#&*=-),'-@#!~--*&#@",
"@#&*=-~#{-~##;--*&#@",
"@#&*=--{@-~##;--*&#@",
"@#&*=-----'#,~--*&#@",
"@#&*=-----]@~---*&#@",
"@#&*-----^;-----*&#@",
"@#&*----~,>-----*&#@",
"@#&*----@##-----*&#@",
"@#&*---->#,-----*&#@",
"@#%&----------**&%#@",
"@#$%*-**&&&&&&&&%$#@",
".@##***&%#########@+",
"..@#&&%##,@@@@@@@@+.",
"..@#%##,@...........",
"..@###@+............"};
