/* XPM */
static char * newtab_xpm[] = {
"20 20 8 1",
" 	c None",
".	c #CECECE",
"+	c #B6B6B6",
"@	c #626262",
"#	c #4A4A4A",
"$	c #000000",
"%	c #FFFFFF",
"&	c #7A7A7A",
"....................",
".+@@@@@@@@@@@@@@@@+.",
".#$$$$$$$$$$$$$$$$#.",
".#$%%%%&%%%%&%%%%$#.",
".#$%%%%&%%%%&%%%%$#.",
".#$%%%%&%%%%&%%%%$#.",
".#$%%%%&%%%%&%%%%$#.",
".#$&&&&&&&&&&&&&&$#.",
".#$%%%%&%%%%&%%%%$#.",
".#$%%%%&%%%%&%%%%$#.",
".#$%%%%&%%%%&%%%%$#.",
".#$%%%%&%%%%&%%%%$#.",
".#$&&&&&&&&&&&&&&$#.",
".#$%%%%&%%%%&%%%%$#.",
".#$%%%%&%%%%&%%%%$#.",
".#$%%%%&%%%%&%%%%$#.",
".#$%%%%&%%%%&%%%%$#.",
".#$$$$$$$$$$$$$$$$#.",
".+@@@@@@@@@@@@@@@@+.",
"...................."};
