/* XPM */
static char * newtab_xpm[] = {
"20 20 5 1",
" 	c None",
".	c #4A4A4A",
"+	c #000000",
"@	c #FFFFFF",
"#	c #7A7A7A",
"                    ",
"                    ",
" .++++++++++++++++. ",
" .+@@@@#@@@@#@@@@+. ",
" .+@@@@#@@@@#@@@@+. ",
" .+@@@@#@@@@#@@@@+. ",
" .+@@@@#@@@@#@@@@+. ",
" .+##############+. ",
" .+@@@@#@@@@#@@@@+. ",
" .+@@@@#@@@@#@@@@+. ",
" .+@@@@#@@@@#@@@@+. ",
" .+@@@@#@@@@#@@@@+. ",
" .+##############+. ",
" .+@@@@#@@@@#@@@@+. ",
" .+@@@@#@@@@#@@@@+. ",
" .+@@@@#@@@@#@@@@+. ",
" .+@@@@#@@@@#@@@@+. ",
" .++++++++++++++++. ",
"                    ",
"                    "};
