/* XPM */
static char * preferences_xpm[] = {
"20 20 18 1",
" 	c None",
".	c #CECECE",
"+	c #B6B6B6",
"@	c #AAAAAA",
"#	c #868686",
"$	c #6E6E6E",
"%	c #4A4A4A",
"&	c #323232",
"*	c #000000",
"=	c #565656",
"-	c #626262",
";	c #9E9E9E",
">	c #929292",
",	c #F2F2F2",
"'	c #7A7A7A",
")	c #C2C2C2",
"!	c #FE0000",
"~	c #3E3E3E",
".....++@#$$#@++.....",
"....+#%&*&&*&%#+....",
"...+=*-#@;;@#-*=+...",
"..+=*>..,-;,..>*=+..",
".+=*#;,,,-;,,,;#*=+.",
"+#*>;-;,,-;,,;-;>*#+",
"+%=.,;',,,,,,';,)-%+",
"@&#,,,,,,,,,,,,,.#&@",
"#*@,,,,,,!!,,,,,,@*#",
"$&;---,,,!!,,,---;&$",
"$&;+++,,,!!,,,;++;&$",
"#*@,,,,,,!!,,,,,,@*#",
"@&#,,,,,,!!,,,,,.#&@",
"+%-.~,,,,!!,,,,~)-%+",
"+#*>.,,,,!!,,,,.>*#+",
".+=*#,,@----@,,#*=+.",
"..+=*.--****--.*=+..",
"...+=*-******-*=+...",
"....+#%&*&&*&%#+....",
".....++@#$$#@++....."};
