/* XPM */
static char * queue_xpm[] = {
"20 20 20 1",
" 	c None",
".	c #868686",
"+	c #6E6E6E",
"@	c #323232",
"#	c #565656",
"$	c #3E3E3E",
"%	c #000000",
"&	c #734A00",
"*	c #503200",
"=	c #262626",
"-	c #966200",
";	c #B97A00",
">	c #7A7A7A",
",	c #626262",
"'	c #DC9200",
")	c #FFB848",
"!	c #FFAA25",
"~	c #48B8FF",
"{	c #8ED4FF",
"]	c #0092DC",
"        .+@@@@+.    ",
"      #$@%&**&%@$#  ",
"     #=&--;;;;--&=# ",
"     =&-;;;;;;;;-&=>",
"     %=&--;;;;--&=%>",
"    ,%*$*&&&&&&*$*%,",
"    ,%**&%%%%%%&**%,",
"    ,%*&-;;;;;;-&*%,",
"    ,%%*-;')!';-&*%,",
"    ,%~%*;')!';-&*%,",
"%%%%%%~~%*')!';-&*%,",
"%{~~~~~~~%*)!';-&*%,",
"%]]]]]~~]%*)!';-&*%,",
"%%%%%%~]%*')!';-&*%,",
"    ,%]%*;')!';-&*%,",
"    >%%*-;')!';-&*%>",
"    >%*&-;')!';-&*%>",
"     #=*&-;'';-&*=# ",
"      #$@%%%%%%@$#  ",
"        >,####,>    "};
