/* XPM */
static char * remtab_xpm[] = {
"20 20 15 1",
" 	c None",
".	c #6E6E6E",
"+	c #000000",
"@	c #3E3E3E",
"#	c #CECECE",
"$	c #626262",
"%	c #730025",
"&	c #FF6B8F",
"*	c #B6B6B6",
"=	c #B9003D",
"-	c #DC0049",
";	c #4A4A4A",
">	c #FFFFFF",
",	c #7A7A7A",
"'	c #960031",
".++@###@++$#########",
"+%&+@#@+&%+$$$$$$$*#",
"+=-&+@+&-=++++++++;#",
"@+=-&+&-=+@>,>>>>+;#",
"#;+=-&-=+@>>,>>>>+;#",
"##@+&-&+@>>>,>>>>+;#",
"#;+&-'-&+@>>,>>>>+;#",
"@+&-'+'-&+@,,,,,,+;#",
"+&-'+@+'-&+>,>>>>+;#",
"+%'+@>@+'%+>,>>>>+;#",
".++@>>>@++@>,>>>>+;#",
"#;@>>>>,>>>>,>>>>+;#",
"#;+,,,,,,,,,,,,,,+;#",
"#;+>>>>,>>>>,>>>>+;#",
"#;+>>>>,>>>>,>>>>+;#",
"#;+>>>>,>>>>,>>>>+;#",
"#;+>>>>,>>>>,>>>>+;#",
"#;++++++++++++++++;#",
"#*$$$$$$$$$$$$$$$$*#",
"####################"};
