/* XPM */
static char * unqueue_xpm[] = {
"20 20 21 1",
" 	c None",
".	c #868686",
"+	c #6E6E6E",
"@	c #323232",
"#	c #3E3E3E",
"$	c #000000",
"%	c #734A00",
"&	c #503200",
"*	c #565656",
"=	c #262626",
"-	c #966200",
";	c #B97A00",
">	c #7A7A7A",
",	c #626262",
"'	c #4A4A4A",
")	c #DC9200",
"!	c #FFB848",
"~	c #FFAA25",
"{	c #8ED4FF",
"]	c #48B8FF",
"^	c #0092DC",
"        .+@@@@+.    ",
"       #@$%&&%$@#*  ",
"      =%--;;;;--%=* ",
"     =%-;;;;;;;;-%=>",
"     $=%--;;;;--%=$>",
"     $&#&%%%%%%&#&$,",
"     $&&%$$$$$$%&&$,",
"     $&%-;;;;;;-%&$,",
"   '$$&%-;)!~);-%&$,",
"  '${$&&%-;!~);-%&$,",
" '${]$$$$$$;~);-%&$,",
"'${]]]]]]]$%~);-%&$,",
"'$^]]^^^^^$%~);-%&$,",
" '$^]$$$$$$;~);-%&$,",
"  '$^$&&%-;!~);-%&$,",
"   '$$&%-;)!~);-%&$>",
"     $&%-;)!~);-%&$>",
"      =&%-;));-%&=* ",
"       #@$$$$$$@#*  ",
"        >,****,>    "};
