/* XPM */
static char * unsave_xpm[] = {
"20 20 8 1",
" 	c None",
".	c #CECECE",
"+	c #000000",
"@	c #4A4A4A",
"#	c #FF6B8F",
"$	c #DC0049",
"%	c #960031",
"&	c #626262",
"....................",
"...+++........@++...",
"..++#++......@+#++..",
".++#$#++....@+#$#++.",
".+#$$$#++..@+#$$$%+.",
".++%$$$#+&&+#$$$%++.",
"..++%$$$#++#$$$%++..",
"...++%$$$##$$$%++...",
"....++%$$$$$$%++....",
".....&+%$$$$%+&.....",
".....&+#$$$$#+&.....",
"....++#$$$$$$#++....",
"...++#$$$%%$$$#++...",
"..++#$$$%++%$$$#++..",
".++#$$$%+&&+%$$$#++.",
".+$$$$%++..@+%$$$$+.",
".++%$%++....@+%$%++.",
"..++%++......@+%++..",
"...+++........@++...",
"...................."};
